<svg style="position: absolute; width: 0; height: 0; overflow: hidden;" aria-hidden="true" version="1.1" xmlns="http://www.w3.org/2000/svg" xmlns:xlink="http://www.w3.org/1999/xlink">
    <style>
        .default-palette, .palette0 {color: currentColor;
            --color0: #4d5ae5;
            --color1: #2e2f42;
        }
    </style>
    <defs>
        <symbol id="illustration-1" viewBox="0 0 16 16" />
        <symbol id="illustration-2" viewBox="0 0 8 8" fill="none">
            <path fill="var(--color1, #2e2f42)" d="M8 0.8057 7.1943 0 4 3.1943 0.8057 0 0 0.8057 3.1943 4 0 7.1943 0.8057 8 4 4.8057 7.1943 8 8 7.1943 4.8057 4z" />
        </symbol>
        <symbol id="Vector" viewBox="0 0 12 12" fill="none">
            <path fill="var(--color0, #4d5ae5)" d="M6 6c1.6575 0 3-1.3425 3-3S7.6575 0 6 0 3 1.3425 3 3 4.3425 6 6 6zM6 7.5c-2.0025 0-6 1.005-6 3v0.75C0 11.6625 0.3375 12 0.75 12h10.5c0.4125 0 0.75-0.3375 0.75-0.75V10.5c0-1.995-3.9975-3-6-3z" />
        </symbol>
        <symbol id="illustration-3" viewBox="0 0 13 13" fill="none">
            <path fill="var(--color1, #2e2f42)" d="M11.7263 8.8651 9.8881 8.6553C9.4467 8.6046 9.0125 8.7566 8.7013 9.0678l-1.3316 1.3315c-2.048-1.0421-3.7269-2.7138-4.769-4.769l1.3388-1.3389C4.2507 3.9803 4.4026 3.5461 4.352 3.1046L4.1421 1.2809C4.0553 0.55 3.4401 0 2.702 0H1.45C0.6323 0-0.048 0.6803 27e-4 1.498 0.3862 7.6783 5.3289 12.6138 11.5019 12.9973c0.8178 0.0507 1.498-0.6296 1.498-1.4473v-1.252c73e-4-0.7309-0.5427-1.346-1.2736-1.4329z" />
        </symbol>
        <symbol id="illustration-4" viewBox="0 0 15 12" fill="none">
            <path fill="var(--color1, #2e2f42)" d="M13.5 0h-12C0.675 0 75e-4 0.675 75e-4 1.5L0 10.5C0 11.325 0.675 12 1.5 12h12c0.825 0 1.5-0.675 1.5-1.5v-9C15 0.675 14.325 0 13.5 0zM13.2 3.1875 7.8975 6.5025c-0.24 0.15-0.555 0.15-0.795 0L1.8 3.1875c-0.1875-0.12-0.3-0.3225-0.3-0.54 0-0.5025 0.5475-0.8025 0.975-0.54L7.5 5.25l5.025-3.1425C12.9525 1.845 13.5 2.145 13.5 2.6475c0 0.2175-0.1125 0.42-0.3 0.54z" />
        </symbol>
    </defs>
</svg>